<svg xmlns="http://www.w3.org/2000/svg" viewBox="0 0 512 512" id="income"><path fill="#9bc9ff" fill-rule="evenodd" d="M310.607 187.677v-5.94c0-2.187-1.778-4-3.972-4-2.212 0-4.019 1.784-4.019 4v5.976l-3 .774c-9.976 2.575-17.53 10.464-17.005 21.124.629 12.781 12.24 18.039 23.446 19.878 5.01.822 11.316 2.368 15.176 5.895 2.227 2.035 3.277 4.258 3.622 7.206.331 2.833-.24 5.396-2.125 7.578-3.495 4.046-10.148 5.717-15.293 5.837-8.337.195-17.063-3.698-19.257-12.446a4.031 4.031 0 0 0-4.873-2.921c-2.148.533-3.415 2.716-2.884 4.852 2.321 9.342 9.86 15.621 19.084 17.726l3.11.71v5.921c0 2.221 1.803 4 4.019 4 2.198 0 3.972-1.808 3.972-4v-5.891l3.225-.637c5.491-1.084 11.195-3.618 14.924-7.915 3.376-3.891 4.667-8.706 4.05-13.799-1.607-13.257-13.662-18.078-25.451-20.011-7.072-1.16-16.313-3.765-16.744-12.361-.356-7.095 5.233-11.694 11.601-13.139 8.709-1.976 17.649 1.592 21.224 10.102.848 2.017 3.219 2.987 5.236 2.14s3.008-3.217 2.155-5.239c-3.198-7.584-9.2-12.702-17.179-14.671l-3.042-.749zM51.066 361.493c-.412-2.825-3.062-4.801-5.887-4.388-2.842.416-4.836 3.023-4.408 5.878.425 2.825 3.051 4.814 5.887 4.396 2.822-.415 4.821-3.056 4.408-5.886zm117.465-256.91c-7.051-1.156-16.314-3.791-16.744-12.365-.357-7.123 5.271-11.701 11.656-13.136 8.7-1.956 17.6 1.607 21.169 10.104.853 2.03 3.212 2.978 5.238 2.129a3.993 3.993 0 0 0 2.148-5.235c-3.164-7.565-9.187-12.694-17.13-14.661l-3.038-.753v-5.941c0-2.22-1.806-3.996-4.019-3.996-2.196 0-3.972 1.806-3.972 3.996v5.981l-3.001.774c-9.977 2.575-17.53 10.458-17.005 21.12.628 12.769 12.195 18.037 23.399 19.878 5.014.824 11.314 2.369 15.183 5.89 2.231 2.03 3.278 4.229 3.656 7.17.368 2.869-.266 5.424-2.166 7.624-3.481 4.03-10.169 5.713-15.293 5.833-8.341.195-17.096-3.686-19.26-12.461a3.98 3.98 0 0 0-4.819-2.908c-2.138.533-3.468 2.714-2.935 4.858 2.323 9.352 9.91 15.617 19.133 17.726l3.109.711v5.915c0 2.192 1.773 4 3.972 4a4.004 4.004 0 0 0 4.019-4v-5.881l3.218-.641c5.457-1.088 11.225-3.626 14.924-7.912 3.368-3.904 4.626-8.72 4.01-13.803-1.609-13.279-13.64-18.078-25.452-20.016zm205.098-7.032c2.352 9.343 9.847 15.625 19.089 17.738l3.109.711v5.924c0 2.216 1.806 4.005 4.019 4.005s4.019-1.789 4.019-4.005v-5.89l3.218-.641c5.443-1.085 11.189-3.633 14.876-7.907 3.369-3.905 4.69-8.692 4.059-13.798-1.638-13.255-13.647-18.077-25.453-20.016-7.049-1.158-16.313-3.792-16.743-12.365-.357-7.123 5.269-11.692 11.648-13.139 8.694-1.973 17.611 1.614 21.177 10.101.846 2.015 3.211 2.994 5.229 2.143 2.024-.854 3.007-3.221 2.158-5.253-3.164-7.566-9.187-12.694-17.131-14.661l-3.038-.753v-5.937c0-2.216-1.807-4.005-4.019-4.005s-4.019 1.789-4.019 4.005v5.985l-3 .775c-9.947 2.569-17.529 10.475-17.006 21.11.629 12.782 12.241 18.04 23.447 19.882 5.008.824 11.314 2.37 15.174 5.894 2.229 2.035 3.278 4.257 3.623 7.207.329 2.822-.248 5.352-2.094 7.542l-.046.053c-3.509 4.017-10.137 5.691-15.274 5.816-8.339.202-17.063-3.699-19.26-12.445-.536-2.136-2.729-3.455-4.867-2.919-2.117.531-3.427 2.729-2.895 4.843zm-66.994 62.625c36.179 0 65.606 29.443 65.606 65.619 0 36.179-29.424 65.62-65.606 65.62-36.2 0-65.652-29.413-65.652-65.62 0-36.204 29.454-65.619 65.652-65.619zM135.677 471.487c2.555 4.514.929 10.407-3.587 12.962l-25.755 14.571c-4.513 2.553-10.375.925-12.976-3.553L17.674 361.688a9.604 9.604 0 0 1-.903-7.182l.015-.056.017-.055c.714-2.407 2.269-4.435 4.459-5.674l25.804-14.593a9.722 9.722 0 0 1 7.174-.85 9.426 9.426 0 0 1 5.729 4.468l75.708 133.741zm32.134-297.08c-36.179 0-65.605-29.443-65.605-65.62 0-36.179 29.424-65.619 65.605-65.619 36.2 0 65.653 29.413 65.653 65.619-.001 36.204-29.456 65.62-65.653 65.62zm166.429-96.54c0-36.179 29.424-65.619 65.605-65.619s65.605 29.441 65.605 65.619c0 36.179-29.424 65.62-65.605 65.62s-65.605-29.442-65.605-65.62z" clip-rule="evenodd"></path><path fill="#57a4ff" fill-rule="evenodd" d="M399.845 16.247c33.963 0 61.605 27.638 61.605 61.62s-27.642 61.62-61.605 61.62-61.605-27.638-61.605-61.62 27.642-61.62 61.605-61.62zm0 139.24c42.784 0 77.596-34.822 77.596-77.62S442.629.247 399.845.247c-42.784 0-77.644 34.822-77.644 77.62s34.86 77.62 77.644 77.62zm13.067-55.86c-2.217 2.538-7.17 4.33-12.359 4.448-5.896.151-13.491-2.241-15.283-9.42-1.085-4.278-5.425-6.896-9.717-5.825-4.245 1.066-6.887 5.415-5.802 9.698 2.642 10.519 11.038 18.137 22.076 20.661v2.736c0 4.411 3.585 8.005 8.019 8.005s8.019-3.594 8.019-8.005v-2.608c7.028-1.401 13.208-4.651 17.123-9.217 4.057-4.675 5.802-10.51 5-16.901-1.556-12.689-11.227-20.59-28.774-23.472-13.067-2.146-13.302-6.849-13.396-8.618-.33-6.689 7.029-8.708 8.538-9.038 6.038-1.382 13.538.477 16.604 7.75 1.698 4.066 6.415 5.991 10.472 4.278 4.057-1.712 5.991-6.401 4.293-10.481-4.057-9.68-11.746-14.991-19.859-17v-2.807c0-4.41-3.585-8.005-8.019-8.005s-8.019 3.594-8.019 8.005v2.887c-12.547 3.241-20.566 13.26-20 25.18.377 7.241 4.293 19.939 26.793 23.633 14.623 2.41 15.236 7.458 15.472 9.618.234 1.88-.144 3.267-1.181 4.498zM167.811 47.168c34.01 0 61.653 27.637 61.653 61.62 0 33.977-27.642 61.62-61.653 61.62-33.963 0-61.605-27.642-61.605-61.62-.001-33.983 27.642-61.62 61.605-61.62zm0 139.239c42.832 0 77.644-34.822 77.644-77.62 0-42.803-34.812-77.62-77.644-77.62-42.784 0-77.596 34.817-77.596 77.62-.001 42.799 34.811 77.62 77.596 77.62zm13.066-55.86c-2.17 2.538-7.17 4.33-12.359 4.448-5.896.142-13.491-2.236-15.283-9.42-1.038-4.288-5.378-6.901-9.67-5.831-4.292 1.071-6.887 5.41-5.849 9.703 2.642 10.519 11.085 18.137 22.123 20.661v2.726c0 4.42 3.585 8 7.972 8 4.434 0 8.019-3.58 8.019-8v-2.599c7.028-1.401 13.208-4.651 17.17-9.222 4.01-4.67 5.755-10.519 4.953-16.897-1.509-12.703-11.18-20.59-28.774-23.482-13.066-2.137-13.302-6.849-13.397-8.618-.33-6.694 7.029-8.703 8.538-9.033 6.085-1.377 13.585.481 16.604 7.75 1.745 4.071 6.415 5.981 10.472 4.269 4.104-1.708 5.991-6.387 4.293-10.467-4.057-9.68-11.746-14.991-19.859-17.001v-2.811c0-4.415-3.585-7.996-8.019-7.996-4.387 0-7.972 3.58-7.972 7.996v2.882c-12.595 3.25-20.614 13.26-20 25.19.33 7.241 4.292 19.939 26.746 23.628 14.623 2.401 15.236 7.462 15.519 9.623.235 1.879-.142 3.27-1.227 4.501zm125.758 33.629c33.963 0 61.606 27.642 61.606 61.619 0 33.982-27.642 61.62-61.606 61.62-34.01 0-61.652-27.638-61.652-61.62 0-33.977 27.642-61.619 61.652-61.619zm0 139.239c-42.831 0-77.644-34.817-77.644-77.62 0-42.798 34.812-77.62 77.644-77.62 42.784 0 77.597 34.822 77.597 77.62 0 42.803-34.813 77.62-77.597 77.62zm13.067-55.86c-2.217 2.542-7.17 4.33-12.359 4.453-5.897.137-13.491-2.24-15.284-9.42a8.029 8.029 0 0 0-9.717-5.83 7.97 7.97 0 0 0-5.802 9.699c2.595 10.519 11.038 18.142 22.076 20.661v2.731c0 4.42 3.585 8 8.019 8 4.387 0 7.972-3.58 7.972-8v-2.604c7.076-1.396 13.208-4.646 17.17-9.217 4.057-4.67 5.755-10.519 5-16.902-1.557-12.689-11.227-20.59-28.774-23.477-13.113-2.142-13.302-6.84-13.397-8.614-.33-6.698 7.029-8.708 8.491-9.038 6.085-1.382 13.585.481 16.651 7.75 1.698 4.071 6.415 5.977 10.472 4.279 4.057-1.708 5.991-6.401 4.293-10.482-4.104-9.679-11.746-14.986-19.906-17v-2.807c0-4.41-3.585-8-7.972-8-4.434 0-8.019 3.59-8.019 8v2.878c-12.595 3.25-20.566 13.264-20.001 25.194.378 7.236 4.293 19.939 26.793 23.628 14.623 2.401 15.236 7.462 15.472 9.618.237 1.882-.141 3.274-1.178 4.5zM55.025 360.917c.708 5.019-2.783 9.689-7.783 10.42-5 .741-9.67-2.741-10.425-7.76-.755-5.028 2.736-9.689 7.783-10.43 5-.73 9.67 2.751 10.425 7.77zm428.879-13.548c7.642-4.713 10-18.534 4.717-27.383-7.689-12.84-28.114-11.298-54.577 4.132l-91.795 53.45c-14.057 8.179-29.151 10.84-46.18 8.109-3.113-.5-12.689-2.127-13.397-2.448-14.293-2.944-27.218-6.614-40.709-10.43-6.038-1.712-12.312-3.481-18.821-5.231-4.245-1.141-6.793-5.533-5.613-9.802 1.132-4.259 5.519-6.797 9.764-5.651 6.651 1.774 12.925 3.561 19.01 5.293 14.199 4.019 27.737 7.849 42.737 10.779 7.689.491 16.557-1.651 19.529-12.859 2.5-9.213-2.924-18.553-12.595-21.93-27.501-5.019-54.011-14.609-75.332-22.321-7.453-2.698-13.915-5.019-19.482-6.831-17.453-5.66-34.01 1.783-49.341 10.661l-68.54 39.699 45.567 80.46 18.491-10.67a8.03 8.03 0 0 1 6.085-.797l120.758 32.359c15.425 4.141 29.954 2.099 43.209-6.047l166.515-102.542zM130.121 480.967c2.595-1.472 3.538-4.91 2.076-7.51l-75.71-133.739a5.387 5.387 0 0 0-3.302-2.58c-.519-.142-2.311-.533-4.198.5l-25.756 14.566c-1.274.722-2.17 1.901-2.594 3.33a5.612 5.612 0 0 0 .519 4.184l75.663 133.739c1.509 2.599 4.953 3.557 7.547 2.08l25.755-14.57zm372.227-169.202c-4.811-7.986-24.435-31.718-76.37-1.467l-91.748 53.44c-4.67 2.708-9.481 4.618-14.529 5.741 1.887-2.944 3.349-6.293 4.34-10.015 4.67-17.434-5.707-35.638-23.585-41.435a12.945 12.945 0 0 0-1.038-.273c-26.416-4.76-52.454-14.17-73.351-21.727-7.264-2.632-14.151-5.114-19.953-7-23.491-7.614-44.671 1.807-62.313 12.038l-68.398 39.609-5-8.84c-2.83-4.991-7.406-8.581-12.972-10.118-5.519-1.542-11.321-.83-16.321 1.991l-25.755 14.566c-10.331 5.854-13.963 19.001-8.113 29.322l75.662 133.739c3.962 6.991 11.274 10.92 18.774 10.92 3.585 0 7.217-.901 10.566-2.788L138 494.897c4.953-2.821 8.585-7.429 10.094-12.981 1.557-5.547.849-11.349-1.981-16.34L136.726 449l15.755-9.094 117.55 31.51c6.651 1.783 13.161 2.66 19.482 2.66 12.689 0 24.812-3.519 36.227-10.547l166.561-102.54c15.094-9.313 19.906-32.771 10.047-49.224z" clip-rule="evenodd"></path></svg>